<?xml version="1.0" encoding="utf-8"?>
<!-- Generator: Adobe Illustrator 22.1.0, SVG Export Plug-In . SVG Version: 6.00 Build 0)  -->
<svg version="1.2" baseProfile="tiny" id="Layer_1" xmlns="http://www.w3.org/2000/svg" xmlns:xlink="http://www.w3.org/1999/xlink"
	 x="0px" y="0px" viewBox="0 0 612 415" xml:space="preserve">
<g>
	<line fill="none" stroke="#ED1C24" stroke-miterlimit="10" x1="89.6" y1="62.3" x2="266.7" y2="62.3"/>
	<line fill="none" stroke="#ED1C24" stroke-miterlimit="10" x1="89.6" y1="103.5" x2="266.7" y2="62.3"/>
	<line fill="none" stroke="#000000" stroke-miterlimit="10" x1="89.6" y1="144.6" x2="266.7" y2="103.5"/>
	<line fill="none" stroke="#000000" stroke-miterlimit="10" x1="89.6" y1="144.6" x2="266.7" y2="144.6"/>
	<line fill="none" stroke="#000000" stroke-miterlimit="10" x1="89.6" y1="185.8" x2="266.7" y2="62.3"/>
	<line fill="none" stroke="#000000" stroke-miterlimit="10" x1="89.6" y1="103.5" x2="266.7" y2="144.6"/>
	<g>
		<circle fill="#FFFFFF" stroke="#000000" stroke-miterlimit="10" cx="89.6" cy="144.6" r="15.4"/>
	</g>
	<g>
		<circle fill="#FFFFFF" stroke="#000000" stroke-miterlimit="10" cx="89.6" cy="62.3" r="15.4"/>
		<text transform="matrix(1 0 0 1 86.7242 65.8196)" font-family="'MyriadPro-Regular'" font-size="12px">a</text>
	</g>
	<g>
		<circle fill="#FFFFFF" stroke="#000000" stroke-miterlimit="10" cx="89.6" cy="103.5" r="15.4"/>
		<text transform="matrix(1 0 0 1 86.2022 106.9816)" font-family="'MyriadPro-Regular'" font-size="12px">b</text>
	</g>
	<text transform="matrix(1 0 0 1 86.9281 148.1436)" font-family="'MyriadPro-Regular'" font-size="12px">c</text>
	<g>
		<circle fill="#FFFFFF" stroke="#000000" stroke-miterlimit="10" cx="89.6" cy="185.8" r="15.4"/>
		<text transform="matrix(1 0 0 1 86.232 189.3056)" font-family="'MyriadPro-Regular'" font-size="12px">d</text>
	</g>
	<g>
		<rect x="251.3" y="46.9" fill="#FFFFFF" stroke="#000000" stroke-miterlimit="10" width="30.8" height="30.8"/>
		<text transform="matrix(1 0 0 1 263.6331 65.8196)" font-family="'MyriadPro-Regular'" font-size="12px">1</text>
	</g>
	<g>
		<rect x="251.3" y="88.1" fill="#FFFFFF" stroke="#000000" stroke-miterlimit="10" width="30.8" height="30.8"/>
		<text transform="matrix(1 0 0 1 263.6331 106.9816)" font-family="'MyriadPro-Regular'" font-size="12px">2</text>
	</g>
	<g>
		<rect x="251.3" y="129.2" fill="#FFFFFF" stroke="#000000" stroke-miterlimit="10" width="30.8" height="30.8"/>
		<text transform="matrix(1 0 0 1 263.6331 148.1436)" font-family="'MyriadPro-Regular'" font-size="12px">3</text>
	</g>
</g>
<g>
	<line fill="none" stroke="#000000" stroke-miterlimit="10" x1="405.2" y1="62.3" x2="479.8" y2="136.9"/>
	<line fill="none" stroke="#ED1C24" stroke-miterlimit="10" x1="405.2" y1="62.3" x2="479.8" y2="62.3"/>
	<line fill="none" stroke="#000000" stroke-miterlimit="10" x1="405.2" y1="136.9" x2="479.8" y2="62.3"/>
	<g>
		<g>
			<circle fill="#FFFFFF" stroke="#000000" stroke-miterlimit="10" cx="405.2" cy="62.3" r="15.4"/>
			<text transform="matrix(1 0 0 1 402.3443 65.8196)" font-family="'MyriadPro-Regular'" font-size="12px">a</text>
		</g>
		<g>
			<circle fill="#FFFFFF" stroke="#000000" stroke-miterlimit="10" cx="479.8" cy="62.3" r="15.4"/>
			<text transform="matrix(1 0 0 1 476.3851 65.8196)" font-family="'MyriadPro-Regular'" font-size="12px">b</text>
		</g>
		<g>
			<circle fill="#FFFFFF" stroke="#000000" stroke-miterlimit="10" cx="405.2" cy="136.9" r="15.4"/>
			<text transform="matrix(1 0 0 1 402.5482 140.3823)" font-family="'MyriadPro-Regular'" font-size="12px">c</text>
		</g>
		<g>
			<circle fill="#FFFFFF" stroke="#000000" stroke-miterlimit="10" cx="479.8" cy="136.9" r="15.4"/>
			<text transform="matrix(1 0 0 1 476.4149 140.3823)" font-family="'MyriadPro-Regular'" font-size="12px">d</text>
		</g>
	</g>
</g>
<text transform="matrix(1 0 0 1 156.7497 30.5137)" font-family="'MyriadPro-Regular'" font-size="12px">B</text>
<text transform="matrix(1 0 0 1 163.2536 30.5137)" font-family="'MyriadPro-Regular'" font-size="12px">i</text>
<text transform="matrix(1 0 0 1 166.0618 30.5137)" font-family="'MyriadPro-Regular'" font-size="12px">p</text>
<text transform="matrix(1 0 0 1 172.8894 30.5137)" font-family="'MyriadPro-Regular'" font-size="12px">a</text>
<text transform="matrix(1 0 0 1 178.6731 30.5137)" font-family="'MyriadPro-Regular'" font-size="12px">r</text>
<text transform="matrix(1 0 0 1 182.885 30.5137)" font-family="'MyriadPro-Regular'" font-size="12px">t</text>
<text transform="matrix(1 0 0 1 186.8572 30.5137)" font-family="'MyriadPro-Regular'" font-size="12px">i</text>
<text transform="matrix(1 0 0 1 189.6648 30.5137)" font-family="'MyriadPro-Regular'" font-size="12px">t</text>
<text transform="matrix(1 0 0 1 193.5647 30.5137)" font-family="'MyriadPro-Regular'" font-size="12px">e</text>
<text transform="matrix(1 0 0 1 416.9817 30.5137)" font-family="'MyriadPro-Regular'" font-size="12px">P</text>
<text transform="matrix(1 0 0 1 423.1736 30.5137)" font-family="'MyriadPro-Regular'" font-size="12px">r</text>
<text transform="matrix(1 0 0 1 426.9778 30.5137)" font-family="'MyriadPro-Regular'" font-size="12px">o</text>
<text transform="matrix(1 0 0 1 433.5657 30.5137)" font-family="'MyriadPro-Regular'" font-size="12px">j</text>
<text transform="matrix(1 0 0 1 436.4817 30.5137)" font-family="'MyriadPro-Regular'" font-size="12px">e</text>
<text transform="matrix(1 0 0 1 442.4934 30.5137)" font-family="'MyriadPro-Regular'" font-size="12px">c</text>
<text transform="matrix(1 0 0 1 448.0251 30.5137)" font-family="'MyriadPro-Regular'" font-size="12px">t</text>
<text transform="matrix(1 0 0 1 451.9973 30.5137)" font-family="'MyriadPro-Regular'" font-size="12px">i</text>
<text transform="matrix(1 0 0 1 454.8054 30.5137)" font-family="'MyriadPro-Regular'" font-size="12px">o</text>
<text transform="matrix(1 0 0 1 461.3933 30.5137)" font-family="'MyriadPro-Regular'" font-size="12px">n</text>
<g>
	<line fill="none" stroke="#000000" stroke-miterlimit="10" x1="89.6" y1="257.2" x2="266.7" y2="257.2"/>
	<line fill="none" stroke="#000000" stroke-miterlimit="10" x1="89.6" y1="298.3" x2="266.7" y2="257.2"/>
	<line fill="none" stroke="#000000" stroke-miterlimit="10" x1="89.6" y1="339.5" x2="266.7" y2="298.3"/>
	<line fill="none" stroke="#ED1C24" stroke-miterlimit="10" x1="89.6" y1="339.5" x2="266.7" y2="339.5"/>
	<line fill="none" stroke="#000000" stroke-miterlimit="10" x1="89.6" y1="380.6" x2="266.7" y2="257.2"/>
	<line fill="none" stroke="#ED1C24" stroke-miterlimit="10" x1="89.6" y1="298.3" x2="266.7" y2="339.5"/>
	<g>
		<circle fill="#FFFFFF" stroke="#000000" stroke-miterlimit="10" cx="89.6" cy="339.5" r="15.4"/>
	</g>
	<g>
		<circle fill="#FFFFFF" stroke="#000000" stroke-miterlimit="10" cx="89.6" cy="257.2" r="15.4"/>
		<text transform="matrix(1 0 0 1 86.7242 260.6728)" font-family="'MyriadPro-Regular'" font-size="12px">a</text>
	</g>
	<g>
		<circle fill="#FFFFFF" stroke="#000000" stroke-miterlimit="10" cx="89.6" cy="298.3" r="15.4"/>
		<text transform="matrix(1 0 0 1 86.2022 301.8348)" font-family="'MyriadPro-Regular'" font-size="12px">b</text>
	</g>
	<text transform="matrix(1 0 0 1 86.9281 342.9968)" font-family="'MyriadPro-Regular'" font-size="12px">c</text>
	<g>
		<circle fill="#FFFFFF" stroke="#000000" stroke-miterlimit="10" cx="89.6" cy="380.6" r="15.4"/>
		<text transform="matrix(1 0 0 1 86.232 384.1588)" font-family="'MyriadPro-Regular'" font-size="12px">d</text>
	</g>
	<g>
		<rect x="251.3" y="241.7" fill="#FFFFFF" stroke="#000000" stroke-miterlimit="10" width="30.8" height="30.8"/>
		<text transform="matrix(1 0 0 1 263.6331 260.6728)" font-family="'MyriadPro-Regular'" font-size="12px">1</text>
	</g>
	<g>
		<rect x="251.3" y="282.9" fill="#FFFFFF" stroke="#000000" stroke-miterlimit="10" width="30.8" height="30.8"/>
		<text transform="matrix(1 0 0 1 263.6331 301.8348)" font-family="'MyriadPro-Regular'" font-size="12px">2</text>
	</g>
	<g>
		<rect x="251.3" y="324.1" fill="#FFFFFF" stroke="#000000" stroke-miterlimit="10" width="30.8" height="30.8"/>
		<text transform="matrix(1 0 0 1 263.6331 342.9968)" font-family="'MyriadPro-Regular'" font-size="12px">3</text>
	</g>
</g>
<g>
	<line fill="none" stroke="#000000" stroke-miterlimit="10" x1="405.2" y1="257.2" x2="479.8" y2="331.7"/>
	<line fill="none" stroke="#000000" stroke-miterlimit="10" x1="405.2" y1="257.2" x2="479.8" y2="257.2"/>
	<line fill="none" stroke="#ED1C24" stroke-miterlimit="10" x1="405.2" y1="331.7" x2="479.8" y2="257.2"/>
	<g>
		<g>
			<circle fill="#FFFFFF" stroke="#000000" stroke-miterlimit="10" cx="405.2" cy="257.2" r="15.4"/>
			<text transform="matrix(1 0 0 1 402.3443 260.6728)" font-family="'MyriadPro-Regular'" font-size="12px">a</text>
		</g>
		<g>
			<circle fill="#FFFFFF" stroke="#000000" stroke-miterlimit="10" cx="479.8" cy="257.2" r="15.4"/>
			<text transform="matrix(1 0 0 1 476.3851 260.6728)" font-family="'MyriadPro-Regular'" font-size="12px">b</text>
		</g>
		<g>
			<circle fill="#FFFFFF" stroke="#000000" stroke-miterlimit="10" cx="405.2" cy="331.7" r="15.4"/>
			<text transform="matrix(1 0 0 1 402.5482 335.2355)" font-family="'MyriadPro-Regular'" font-size="12px">c</text>
		</g>
		<g>
			<circle fill="#FFFFFF" stroke="#000000" stroke-miterlimit="10" cx="479.8" cy="331.7" r="15.4"/>
			<text transform="matrix(1 0 0 1 476.4149 335.2355)" font-family="'MyriadPro-Regular'" font-size="12px">d</text>
		</g>
	</g>
</g>
<g>
	<line fill="none" stroke="#000000" stroke-miterlimit="10" x1="23.9" y1="221.5" x2="24.9" y2="221.5"/>

		<line fill="none" stroke="#000000" stroke-miterlimit="10" stroke-dasharray="1.9952,1.9952" x1="26.9" y1="221.5" x2="580.6" y2="221.5"/>
	<line fill="none" stroke="#000000" stroke-miterlimit="10" x1="581.6" y1="221.5" x2="582.6" y2="221.5"/>
</g>
</svg>
